# xmcd
#
# Track frame offsets:
#	150
#	15147
#	30467
#	44807
#	58695
#	73545
#	87997
#	103022
#	117142
#	131742
#	146267
#	160732
#	174722
#	189370
#	203342
#	217610
#	232792
#	247590
#	262805
#	278862
#	294702
#	309010
#
# Disc length: 4319 seconds
#
# Revision: 1
# Processed by: cddbd v1.5.1PL2 Copyright (c) Steve Scherf et al.
# Submitted via: audiograbber 1.82.01
#
DISCID=1910dd16
DTITLE=Stratos Pagioumtzis - Stratos Pagioumtzis o Megas
DYEAR=1900
DGENRE=Rebetika
TTITLE0=Mia Nyxta sto Pasalimani
TTITLE1=O Gamos tou Tsitsani
TTITLE2=Zoitsa mou
TTITLE3=Gia mia Ksanthoula
TTITLE4=Periplanomenos
TTITLE5=Na Pame gia ti Voula
TTITLE6=Tin Kyriaki to Deilino
TTITLE7=Ta Tsokara
TTITLE8=Varka Yialo
TTITLE9=Tis Mastouras o Skopos
TTITLE10=Poios den Evale Ntalgades
TTITLE11=Thelo Spiti kai Lefta
TTITLE12=Omorfi Smyrnia
TTITLE13=O Sergianis
TTITLE14=Den me Stefanonesai
TTITLE15=O Tsitsanis sto Monte Karlo
TTITLE16=Ap' to Maroko i Esme
TTITLE17=Gia Sena Mavromata mou
TTITLE18=Sambah Manes (Anoiksete ta Mnimata)
TTITLE19=Apopse Thartho na sta Psalo
TTITLE20=Se Zilevo kai Pono
TTITLE21=Gi' Afto to Rixno sto Pioto
EXTD=Rebetika music of the Greek underground and wine sippers.
EXTT0=
EXTT1=
EXTT2=
EXTT3=
EXTT4=
EXTT5=
EXTT6=
EXTT7=
EXTT8=
EXTT9=
EXTT10=
EXTT11=
EXTT12=
EXTT13=
EXTT14=
EXTT15=
EXTT16=
EXTT17=
EXTT18=
EXTT19=
EXTT20=
EXTT21=
PLAYORDER=
